<svg width="24" height="24" viewBox="0 0 24 24" fill="none" xmlns="http://www.w3.org/2000/svg">
<circle cx="12" cy="12" r="1.5" fill="#6E6E6E"/>
<path d="M12 8C13.9493 8 15.747 8.77654 17.0654 9.74414C17.7222 10.2262 18.2338 10.7372 18.5713 11.1865C18.74 11.4112 18.8547 11.6065 18.9238 11.7617C18.9578 11.8381 18.9782 11.8979 18.9893 11.9414C19.0004 11.9856 19 12.0041 19 12C19 11.9959 19.0004 12.0144 18.9893 12.0586C18.9782 12.1021 18.9578 12.1619 18.9238 12.2383C18.8547 12.3935 18.74 12.5888 18.5713 12.8135C18.2338 13.2628 17.7222 13.7738 17.0654 14.2559C15.747 15.2235 13.9493 16 12 16C10.0507 16 8.25298 15.2235 6.93457 14.2559C6.27785 13.7738 5.7662 13.2628 5.42871 12.8135C5.26001 12.5888 5.14532 12.3935 5.07617 12.2383C5.04215 12.1619 5.02175 12.1021 5.01074 12.0586C4.99958 12.0144 5 11.9959 5 12C5 12.0041 4.99958 11.9856 5.01074 11.9414C5.02175 11.8979 5.04215 11.8381 5.07617 11.7617C5.14532 11.6065 5.26001 11.4112 5.42871 11.1865C5.7662 10.7372 6.27785 10.2262 6.93457 9.74414C8.25298 8.77654 10.0507 8 12 8Z" stroke="#6E6E6E" stroke-width="2"/>
<rect x="11" y="3.5" width="2" height="3" rx="1" fill="#6E6E6E"/>
<rect x="17.1328" y="3.76794" width="2" height="3" rx="1" transform="rotate(30 17.1328 3.76794)" fill="#6E6E6E"/>
<rect width="2" height="3" rx="1" transform="matrix(0.866025 -0.5 -0.5 -0.866025 6.5 7.36597)" fill="#6E6E6E"/>
</svg>
