<svg width="16" height="16" viewBox="0 0 16 16" fill="none" xmlns="http://www.w3.org/2000/svg">
<path d="M8 5C9.37862 5 10.6675 5.58756 11.626 6.33789C12.102 6.71058 12.4707 7.10318 12.7109 7.44434C12.9774 7.82278 13 8.01277 13 8C13 7.98723 12.9774 8.17722 12.7109 8.55566C12.4707 8.89682 12.102 9.28942 11.626 9.66211C10.6675 10.4124 9.37862 11 8 11C6.62138 11 5.33249 10.4124 4.37402 9.66211C3.89797 9.28942 3.52925 8.89682 3.28906 8.55566C3.02263 8.17722 3 7.98723 3 8C3 8.01277 3.02263 7.82278 3.28906 7.44434C3.52925 7.10318 3.89797 6.71058 4.37402 6.33789C5.33249 5.58756 6.62138 5 8 5Z" stroke="#6E6E6E" stroke-width="2"/>
<circle cx="8" cy="8" r="1" fill="#6E6E6E"/>
<rect x="7" y="1" width="2" height="2" rx="1" fill="#6E6E6E"/>
<rect x="11" y="2" width="2" height="2" rx="1" fill="#6E6E6E"/>
<rect width="2" height="2" rx="1" transform="matrix(1 0 0 -1 3 4)" fill="#6E6E6E"/>
</svg>
