<svg width="24" height="24" viewBox="0 0 24 24" fill="none" xmlns="http://www.w3.org/2000/svg">
<path d="M7 14H9" stroke="#6E6E6E" stroke-width="2" stroke-linecap="round"/>
<path d="M7 10L12 10" stroke="#6E6E6E" stroke-width="2" stroke-linecap="round"/>
<path d="M12.2754 4C11.9643 4.60949 11.9128 5.3439 12.1445 6H6C4.89543 6 4 6.89543 4 8V19.2959L5.77637 17.7422C6.3232 17.2638 7.0254 17 7.75195 17H15C16.1046 17 17 16.1046 17 15V11.6758L17.9932 11.1289L19 11.6836V15C19 17.2091 17.2091 19 15 19H7.75195C7.50976 19 7.27505 19.0876 7.09277 19.2471L5.31738 20.8018C4.02422 21.9333 2 21.0142 2 19.2959V8C2 5.79086 3.79086 4 6 4H12.2754Z" fill="#6E6E6E"/>
<path d="M17.6082 2.25465C17.7685 1.91512 18.2315 1.91512 18.3918 2.25465L19.2894 4.15627C19.353 4.2911 19.476 4.38455 19.6184 4.40617L21.6254 4.71111C21.9838 4.76555 22.1269 5.22602 21.8676 5.4903L20.4152 6.97051C20.3123 7.07546 20.2653 7.22667 20.2896 7.37486L20.6324 9.46494C20.6937 9.83812 20.319 10.1227 19.9985 9.94651L18.2033 8.95971C18.076 8.88974 17.924 8.88974 17.7967 8.95971L16.0015 9.94651C15.681 10.1227 15.3063 9.83812 15.3676 9.46494L15.7104 7.37486C15.7347 7.22667 15.6877 7.07546 15.5848 6.97051L14.1324 5.4903C13.8731 5.22602 14.0162 4.76555 14.3746 4.71111L16.3816 4.40617C16.524 4.38455 16.647 4.2911 16.7106 4.15627L17.6082 2.25465Z" fill="#6E6E6E"/>
</svg>
