<svg width="24" height="24" viewBox="0 0 24 24" fill="none" xmlns="http://www.w3.org/2000/svg">
<path d="M11.1185 3.94029C11.4791 3.20964 12.5209 3.20964 12.8815 3.94029L14.9011 8.03243C15.0443 8.32257 15.3211 8.52367 15.6413 8.57019L20.1572 9.2264C20.9636 9.34356 21.2855 10.3344 20.7021 10.9032L17.4343 14.0885C17.2026 14.3143 17.0969 14.6397 17.1516 14.9586L17.923 19.4563C18.0607 20.2593 17.2178 20.8717 16.4966 20.4926L12.4575 18.3691C12.1711 18.2185 11.8289 18.2185 11.5426 18.3691L7.50336 20.4926C6.78218 20.8717 5.93928 20.2593 6.07702 19.4563L6.84843 14.9586C6.90313 14.6397 6.7974 14.3143 6.56571 14.0885L3.29794 10.9032C2.71449 10.3344 3.03645 9.34356 3.84276 9.2264L8.35871 8.57019C8.67889 8.52367 8.95569 8.32257 9.09888 8.03243L11.1185 3.94029Z" fill="#AEAEAE"/>
</svg>
