<svg width="24" height="24" viewBox="0 0 24 24" fill="none" xmlns="http://www.w3.org/2000/svg">
<path d="M12 3C16.9706 3 21 7.02944 21 12C21 16.9706 16.9706 21 12 21C7.02944 21 3 16.9706 3 12C3 7.02944 7.02944 3 12 3ZM17.6064 8.53516C17.216 8.1449 16.5829 8.14502 16.1924 8.53516L11.2422 13.4854L9.12109 11.3643C8.73057 10.9737 8.09756 10.9737 7.70703 11.3643C7.31654 11.7548 7.31652 12.3878 7.70703 12.7783L10.5352 15.6064C10.9257 15.997 11.5587 15.9969 11.9492 15.6064L17.6064 9.9502C17.997 9.55967 17.997 8.92568 17.6064 8.53516Z" fill="#6E6E6E"/>
</svg>
