<svg width="16" height="16" viewBox="0 0 16 16" fill="none" xmlns="http://www.w3.org/2000/svg">
<path d="M8 2C11.3137 2 14 4.68629 14 8C14 11.3137 11.3137 14 8 14C4.68629 14 2 11.3137 2 8C2 4.68629 4.68629 2 8 2ZM10.8281 5.17188C10.4376 4.78138 9.80459 4.78143 9.41406 5.17188L7.99902 6.58594L6.58496 5.17188C6.19444 4.78135 5.56142 4.78135 5.1709 5.17188C4.78056 5.56241 4.78044 6.19547 5.1709 6.58594L6.58496 8L5.1709 9.41406C4.78044 9.80453 4.78056 10.4376 5.1709 10.8281C5.56142 11.2186 6.19444 11.2186 6.58496 10.8281L7.99902 9.41309L9.41406 10.8281C9.80459 11.2186 10.4376 11.2186 10.8281 10.8281C11.2183 10.4376 11.2185 9.80449 10.8281 9.41406L9.41309 8L10.8281 6.58594C11.2185 6.19551 11.2183 5.5624 10.8281 5.17188Z" fill="currentColor"/>
</svg>
