<svg width="24" height="24" viewBox="0 0 24 24" fill="none" xmlns="http://www.w3.org/2000/svg">
<path d="M12 3C16.9706 3 21 7.02944 21 12C21 16.9706 16.9706 21 12 21C7.02944 21 3 16.9706 3 12C3 7.02944 7.02944 3 12 3ZM16.2432 7.75684C15.8527 7.36633 15.2187 7.36636 14.8281 7.75684L11.999 10.585L9.17188 7.75781C8.78135 7.36729 8.14834 7.36729 7.75781 7.75781C7.36729 8.14834 7.36729 8.78135 7.75781 9.17188L10.585 11.999L7.75781 14.8281C7.36729 15.2186 7.36729 15.8517 7.75781 16.2422C8.14834 16.6327 8.78135 16.6327 9.17188 16.2422L12 13.4141L14.8281 16.2422C15.2186 16.6327 15.8517 16.6327 16.2422 16.2422C16.6327 15.8517 16.6327 15.2186 16.2422 14.8281L13.4141 12L16.2432 9.17188C16.6336 8.78135 16.6337 8.14734 16.2432 7.75684Z" fill="currentColor"/>
</svg>
