<svg width="16" height="16" viewBox="0 0 16 16" fill="none" xmlns="http://www.w3.org/2000/svg">
<path d="M8.04401 8.46534C9.37455 8.46534 10.6308 7.94578 11.5674 7.27613C12.0321 6.94383 12.3774 6.60288 12.5903 6.32671C12.6402 6.26193 12.6763 6.20699 12.7041 6.16336L14 7.03977C13.1464 8.31273 10.8021 10 8.04401 10C5.18452 10 2.76994 8.44553 2 7.03977L3.51695 6.51405C3.71209 6.77818 4.03381 7.09171 4.48374 7.39453C5.38546 8.00137 6.65269 8.46534 8.04401 8.46534Z" fill="currentColor"/>
<rect width="2" height="2" rx="1" transform="matrix(1 0 0 -1 7 13)" fill="currentColor"/>
<rect width="2" height="2" rx="1" transform="matrix(1 0 0 -1 12.249 12)" fill="currentColor"/>
<rect x="1.61621" y="10" width="2" height="2" rx="1" fill="currentColor"/>
</svg>
