<svg width="24" height="24" viewBox="0 0 24 24" fill="none" xmlns="http://www.w3.org/2000/svg">
<path d="M12.0003 12.2129C13.6897 12.2129 15.2848 11.5358 16.4739 10.6631C17.064 10.23 17.5025 9.78568 17.7728 9.42578C17.8362 9.34135 17.882 9.26975 17.9173 9.21289L19.5627 10.3551C18.4788 12.014 15.5024 14.2129 12.0003 14.2129C8.36959 14.2129 5.30378 12.1871 4.32617 10.3551L6.25227 9.66992C6.50003 10.0141 6.90852 10.4227 7.4798 10.8174C8.62473 11.6082 10.2337 12.2129 12.0003 12.2129Z" fill="currentColor"/>
<rect width="2" height="3" rx="1" transform="matrix(1 0 0 -1 11 18.37)" fill="currentColor"/>
<rect width="2" height="3" rx="1" transform="matrix(0.866025 -0.5 -0.5 -0.866025 17.1328 18.0981)" fill="currentColor"/>
<rect x="6.5" y="14.5" width="2" height="3" rx="1" transform="rotate(30 6.5 14.5)" fill="currentColor"/>
</svg>
