<svg width="16" height="16" viewBox="0 0 16 16" fill="none" xmlns="http://www.w3.org/2000/svg">
<g clip-path="url(#clip0_334_13666)">
<path d="M8.80078 2.33365C8.41915 2.9208 8.39268 3.71556 8.77051 4.33365H5C4.44772 4.33365 4 4.78136 4 5.33365V12.1295L4.63086 11.5778C5.05621 11.2056 5.60278 11.0006 6.16797 11.0006H11C11.5521 11.0006 11.9997 10.5526 12 10.0006V8.36295C12.0738 8.33302 12.1484 8.29913 12.2227 8.25845L13 7.8317L13.7773 8.25845C13.8516 8.29913 13.9262 8.33302 14 8.36295V10.0006C13.9997 11.6572 12.6566 13.0006 11 13.0006H6.16797C6.08728 13.0006 6.00899 13.0296 5.94824 13.0827L4.76465 14.1188C3.68719 15.0614 2.00058 14.2963 2 12.8649V5.33365C2 3.67679 3.34315 2.33365 5 2.33365H8.80078Z" fill="currentColor"/>
<path d="M12.8481 1.50311C12.9598 1.27676 13.2826 1.27676 13.3943 1.50311L14.02 2.77086C14.0643 2.86074 14.1501 2.92304 14.2493 2.93746L15.6483 3.14075C15.8981 3.17705 15.9979 3.48402 15.8171 3.66021L14.8048 4.64702C14.733 4.71698 14.7002 4.81779 14.7172 4.91658L14.9562 6.30997C14.9988 6.55876 14.7377 6.74848 14.5143 6.63102L13.2629 5.97315C13.1742 5.9265 13.0682 5.9265 12.9795 5.97315L11.7282 6.63102C11.5047 6.74848 11.2436 6.55876 11.2863 6.30997L11.5253 4.91658C11.5422 4.81779 11.5094 4.71698 11.4377 4.64702L10.4253 3.66021C10.2446 3.48402 10.3443 3.17705 10.5941 3.14075L11.9931 2.93746C12.0923 2.92304 12.1781 2.86074 12.2224 2.77086L12.8481 1.50311Z" fill="currentColor"/>
</g>
<defs>
<clipPath id="clip0_334_13666">
<rect width="16" height="16" fill="white"/>
</clipPath>
</defs>
</svg>
