<svg width="16" height="16" viewBox="0 0 16 16" fill="none" xmlns="http://www.w3.org/2000/svg">
<path d="M7.41231 2.62686C7.65271 2.13976 8.34729 2.13976 8.58769 2.62686L9.93408 5.35495C10.0295 5.54838 10.2141 5.68245 10.4275 5.71346L13.4382 6.15093C13.9757 6.22904 14.1903 6.88963 13.8014 7.26878L11.6229 9.39231C11.4684 9.54287 11.3979 9.75979 11.4344 9.97239L11.9487 12.9709C12.0405 13.5062 11.4785 13.9145 10.9978 13.6617L8.30497 12.246C8.11404 12.1457 7.88596 12.1457 7.69503 12.246L5.00224 13.6617C4.52145 13.9145 3.95952 13.5062 4.05134 12.9709L4.56562 9.97239C4.60208 9.75979 4.5316 9.54287 4.37714 9.39231L2.19863 7.26878C1.80966 6.88963 2.0243 6.22904 2.56184 6.15093L5.57247 5.71346C5.78593 5.68245 5.97046 5.54838 6.06592 5.35495L7.41231 2.62686Z" />
</svg>
