<svg width="16" height="16" viewBox="0 0 16 16" fill="none" xmlns="http://www.w3.org/2000/svg">
<path d="M8 2C11.3137 2 14 4.68629 14 8C14 11.3137 11.3137 14 8 14C4.68629 14 2 11.3137 2 8C2 4.68629 4.68629 2 8 2ZM10.8643 6.12109C10.4737 5.73057 9.83974 5.73057 9.44922 6.12109L7.32812 8.24219L6.62109 7.53516C6.23058 7.14479 5.59752 7.14475 5.20703 7.53516C4.81655 7.92563 4.81664 8.55868 5.20703 8.94922L6.62109 10.3633C7.01162 10.7538 7.64463 10.7538 8.03516 10.3633L10.8643 7.53516C11.2545 7.14468 11.2545 6.51155 10.8643 6.12109Z" fill="currentColor"/>
</svg>
